<svg width="452" height="416" viewBox="0 0 452 416" fill="none" xmlns="http://www.w3.org/2000/svg">
<path d="M154.592 121.447L78.5839 100.924L93.0356 47.4008L169.044 67.9236L154.592 121.447Z" stroke="#008EF8" stroke-linecap="round" stroke-linejoin="round"/>
<path d="M72.16 119.64C91.606 119.64 107.37 103.876 107.37 84.43C107.37 64.9841 91.606 49.22 72.16 49.22C52.7141 49.22 36.95 64.9841 36.95 84.43C36.95 103.876 52.7141 119.64 72.16 119.64Z" fill="#C1E3F7"/>
<path d="M131.727 324.25L52.0308 342.503C46.109 343.859 42.4079 349.759 43.7642 355.681L55.4402 406.661C56.7965 412.583 62.6965 416.284 68.6183 414.928L148.315 396.675C154.237 395.319 157.938 389.419 156.581 383.497L144.905 332.517C143.549 326.595 137.649 322.894 131.727 324.25Z" fill="#008EF8"/>
<path d="M127.937 333.859L59.6353 349.502C55.1509 350.529 52.3481 354.997 53.3752 359.481L62.4414 399.067C63.4685 403.551 67.9364 406.354 72.4208 405.327L140.722 389.683C145.207 388.656 148.009 384.188 146.982 379.704L137.916 340.119C136.889 335.635 132.421 332.832 127.937 333.859Z" fill="#C1E3F7"/>
<path d="M102.198 350.597L68.5984 358.292C67.5218 358.539 66.8488 359.612 67.0954 360.688L70.2343 374.393C70.4809 375.47 71.5537 376.143 72.6303 375.896L106.23 368.201C107.307 367.954 107.98 366.882 107.733 365.805L104.594 352.1C104.348 351.023 103.275 350.35 102.198 350.597Z" fill="#008EF8"/>
<path d="M132.48 370.577L89.7655 380.36C88.6888 380.607 88.0159 381.68 88.2625 382.756L90.4168 392.163C90.6634 393.239 91.7362 393.912 92.8129 393.666L135.527 383.883C136.604 383.636 137.277 382.564 137.03 381.487L134.876 372.08C134.629 371.004 133.556 370.331 132.48 370.577Z" fill="#008EF8"/>
<path d="M383.353 69.1083L303.206 85.2688C297.251 86.4696 293.397 92.2707 294.597 98.226L304.935 149.494C306.136 155.449 311.937 159.304 317.892 158.103L398.039 141.942C403.994 140.742 407.849 134.941 406.648 128.985L396.31 77.717C395.109 71.7618 389.308 67.9075 383.353 69.1083Z" fill="#008EF8"/>
<path d="M383.012 77.3456L354.662 83.0618C352.681 83.4614 351.398 85.3916 351.798 87.373L361.698 136.475C362.098 138.456 364.028 139.739 366.01 139.339L394.359 133.623C396.34 133.223 397.623 131.293 397.223 129.312L387.323 80.2099C386.923 78.2285 384.993 76.946 383.012 77.3456Z" fill="#C1E3F7"/>
<path d="M341.278 85.7645L307.086 92.6588C305.105 93.0583 303.822 94.9885 304.222 96.97L306.776 109.635C307.175 111.617 309.105 112.899 311.087 112.499L345.279 105.605C347.26 105.206 348.543 103.275 348.143 101.294L345.589 88.6289C345.19 86.6474 343.26 85.3649 341.278 85.7645Z" fill="#C1E3F7"/>
<path d="M352.806 134.531L315.36 142.082C314.277 142.3 313.576 143.355 313.794 144.438L314.451 147.692C314.669 148.775 315.724 149.476 316.807 149.257L354.253 141.707C355.336 141.489 356.036 140.434 355.818 139.351L355.162 136.097C354.944 135.014 353.889 134.313 352.806 134.531Z" fill="#C1E3F7"/>
<path d="M323.419 115.644L312.176 117.911C310.194 118.31 308.912 120.241 309.311 122.222L311.578 133.466C311.978 135.447 313.908 136.73 315.89 136.33L327.133 134.063C329.115 133.663 330.397 131.733 329.998 129.752L327.73 118.508C327.331 116.527 325.401 115.244 323.419 115.644Z" fill="#C1E3F7"/>
<path d="M345.165 111.263L333.921 113.53C331.939 113.93 330.657 115.86 331.056 117.841L333.324 129.085C333.723 131.066 335.653 132.349 337.635 131.949L348.879 129.682C350.86 129.283 352.142 127.353 351.743 125.371L349.476 114.127C349.076 112.146 347.146 110.863 345.165 111.263Z" fill="#C1E3F7"/>
<path d="M214.64 13.59C215.19 16.21 215.55 18.84 215.84 21.47C216.13 24.1 216.33 26.75 216.49 29.39C216.65 32.03 216.71 34.68 216.7 37.33C216.69 39.98 216.62 42.64 216.35 45.33C215.815 42.7219 215.411 40.0886 215.14 37.44C214.84 34.8 214.65 32.16 214.49 29.52C214.33 26.88 214.27 24.23 214.29 21.58C214.271 18.9125 214.388 16.2457 214.64 13.59V13.59Z" fill="#0850EC"/>
<path d="M231.35 28.59C228.743 29.1281 226.109 29.5286 223.46 29.79C220.83 30.1 218.19 30.28 215.55 30.44C212.91 30.6 210.26 30.67 207.55 30.65C204.879 30.6687 202.209 30.5518 199.55 30.3C202.158 29.7635 204.791 29.3597 207.44 29.09C210.07 28.79 212.72 28.61 215.36 28.45C218 28.29 220.65 28.23 223.3 28.24C225.95 28.25 228.69 28.32 231.35 28.59V28.59ZM235.57 33C236.055 34.7345 236.409 36.5027 236.63 38.29C236.87 40.07 237.05 41.84 237.14 43.62C237.23 45.4 237.26 47.18 237.21 48.97C237.18 50.773 237.017 52.5713 236.72 54.35C236.232 52.6158 235.875 50.8475 235.65 49.06C235.41 47.28 235.24 45.51 235.15 43.73C235.06 41.95 235.03 40.16 235.08 38.38C235.11 36.577 235.273 34.7787 235.57 33V33Z" fill="#0850EC"/>
<path d="M246.82 43.13C245.086 43.6146 243.317 43.9689 241.53 44.19C239.75 44.44 237.98 44.61 236.2 44.7C234.42 44.79 232.63 44.82 230.85 44.77C229.047 44.7403 227.249 44.5765 225.47 44.28C227.205 43.797 228.973 43.4394 230.76 43.21C232.53 42.97 234.31 42.8 236.09 42.71C237.87 42.62 239.65 42.59 241.44 42.64C243.243 42.6697 245.041 42.8334 246.82 43.13V43.13Z" fill="#0850EC"/>
<path d="M15 299.37C15.55 301.99 15.91 304.62 16.2 307.25C16.49 309.88 16.69 312.53 16.85 315.17C17.01 317.81 17.07 320.46 17.06 323.11C17.075 325.781 16.9549 328.451 16.7 331.11C16.15 328.48 15.79 325.85 15.5 323.22C15.21 320.59 15.01 317.94 14.85 315.3C14.69 312.66 14.63 310.01 14.65 307.36C14.6264 304.692 14.7432 302.025 15 299.37V299.37Z" fill="#0234C1"/>
<path d="M31.72 314.37C29.1129 314.908 26.4792 315.309 23.83 315.57C21.2 315.88 18.56 316.06 15.91 316.22C13.26 316.38 10.62 316.45 7.97 316.43C5.29913 316.449 2.62904 316.332 -0.0299988 316.08C2.57785 315.544 5.21124 315.14 7.86 314.87C10.49 314.57 13.13 314.39 15.78 314.23C18.43 314.07 21.07 314.01 23.72 314.02C26.37 314.03 29.05 314.1 31.72 314.37ZM35.94 318.81C36.4246 320.544 36.7789 322.313 37 324.1C37.24 325.88 37.42 327.65 37.51 329.43C37.6 331.21 37.63 332.99 37.58 334.78C37.5503 336.583 37.3866 338.381 37.09 340.16C36.5954 338.426 36.2311 336.658 36 334.87C35.76 333.09 35.58 331.32 35.49 329.54C35.4 327.76 35.38 325.98 35.43 324.19C35.4663 322.386 35.6367 320.588 35.94 318.81V318.81Z" fill="#0234C1"/>
<path d="M47.19 328.91C45.4519 329.394 43.6804 329.748 41.89 329.97C40.12 330.22 38.35 330.39 36.57 330.48C34.79 330.57 33 330.6 31.21 330.55C29.4071 330.519 27.6088 330.356 25.83 330.06C27.569 329.578 29.3402 329.22 31.13 328.99C32.9 328.75 34.68 328.58 36.46 328.49C38.24 328.4 40.02 328.37 41.81 328.42C43.613 328.45 45.4113 328.613 47.19 328.91V328.91ZM419.72 257.57C420.27 260.19 420.63 262.83 420.92 265.46C421.21 268.09 421.41 270.74 421.57 273.38C421.73 276.02 421.79 278.67 421.78 281.32C421.796 283.991 421.675 286.661 421.42 289.32C420.87 286.7 420.51 284.07 420.22 281.44C419.93 278.81 419.73 276.16 419.57 273.52C419.41 270.88 419.35 268.23 419.37 265.58C419.351 262.906 419.468 260.232 419.72 257.57V257.57Z" fill="#0234C1"/>
<path d="M436.43 272.58C433.81 273.13 431.18 273.49 428.54 273.78C425.9 274.07 423.27 274.27 420.62 274.43C417.97 274.59 415.33 274.66 412.68 274.64C410.009 274.659 407.339 274.542 404.68 274.29C407.288 273.754 409.921 273.35 412.57 273.08C415.2 272.78 417.84 272.6 420.49 272.44C423.14 272.28 425.78 272.21 428.43 272.23C431.101 272.211 433.771 272.328 436.43 272.58V272.58ZM440.65 277C441.134 278.738 441.488 280.51 441.71 282.3C441.95 284.07 442.13 285.85 442.22 287.63C442.31 289.41 442.34 291.19 442.29 292.98C442.26 294.783 442.097 296.581 441.8 298.36C441.312 296.622 440.955 294.851 440.73 293.06C440.49 291.29 440.31 289.52 440.22 287.74C440.13 285.96 440.11 284.17 440.16 282.39C440.19 280.584 440.354 278.782 440.65 277Z" fill="#0234C1"/>
<path d="M451.9 287.12C450.162 287.605 448.391 287.959 446.6 288.18C444.83 288.42 443.06 288.6 441.28 288.69C439.5 288.78 437.71 288.81 435.93 288.76C434.124 288.73 432.322 288.566 430.54 288.27C432.278 287.783 434.049 287.426 435.84 287.2C437.61 286.96 439.39 286.78 441.17 286.69C442.95 286.6 444.73 286.58 446.52 286.63C448.323 286.66 450.121 286.823 451.9 287.12Z" fill="#0234C1"/>
<path d="M177.6 182.13C179 166.53 191.29 156.51 192 156C200.05 149.64 202.58 152.79 217 144.71C223.48 141.08 229.58 137.6 235.64 130.83C241.37 124.43 245.97 119.29 247.53 111.4C248.29 107.55 248.16 103.95 251.09 101.33C253.33 99.33 257.09 98.19 259.8 99.51C263.88 101.51 264.71 108.43 263.61 113.06C262.61 117.17 260.33 118.58 261.12 121.33C261.82 123.8 264.05 123.96 266.25 126.52C269.85 130.72 269.38 136.68 269.25 138.37C268.64 146.06 263.54 147.66 263.64 155.44C263.69 158.77 264.64 158.62 264.47 161.73C264.19 167.39 260.92 171.55 257.95 175.21C252.95 181.38 250.9 180.76 247.39 186.29C244.52 190.79 245.49 191.83 243.01 194.65C238.37 199.92 231.18 200.65 229.29 200.79C221.92 201.5 216.04 198.67 210.51 196C201.67 191.73 201.51 189 196.84 188.76C188.67 188.39 184.4 196.69 180.43 194.82C176.63 193 177.43 184 177.6 182.13V182.13ZM131.41 204.45C118.41 195.78 102.85 199.13 101.99 199.33C91.99 201.63 92.87 205.58 77.54 211.81C70.66 214.6 64.13 217.19 55.06 217.69C46.48 218.16 39.6 218.54 32.46 214.83C28.98 213.02 26.25 210.66 22.37 211.32C19.42 211.83 16.19 214.02 15.51 216.98C14.51 221.4 19.41 226.39 23.71 228.42C27.53 230.22 30.07 229.31 31.71 231.64C33.2 233.73 31.94 235.57 32.56 238.89C33.56 244.33 38.56 247.68 39.94 248.63C46.33 252.96 50.77 249.98 56.78 254.92C59.34 257.03 58.64 257.67 61.17 259.49C65.76 262.82 71.05 262.86 75.77 262.83C83.7 262.83 84.5 260.83 91.02 261.5C96.32 262.08 96.52 263.5 100.28 263.31C107.28 262.98 112.28 257.8 113.65 256.43C118.81 251.12 120.26 244.76 121.65 238.77C123.84 229.21 121.8 227.34 124.54 223.58C129.35 216.97 138.54 218.82 139.54 214.58C140.5 210.48 133 205.51 131.41 204.45V204.45Z" fill="#C1E3F7"/>
<path d="M195 175.44C195.781 173.181 196.814 171.017 198.08 168.99C199.373 166.959 200.922 165.104 202.69 163.47C204.473 161.837 206.497 160.488 208.69 159.47C210.881 158.488 213.14 157.666 215.45 157.01C220.019 155.741 224.522 154.242 228.94 152.52C231.15 151.67 233.34 150.75 235.5 149.78C237.66 148.81 239.82 147.78 241.97 146.78C239.97 148.01 237.83 149.13 235.71 150.23C233.59 151.33 231.42 152.29 229.23 153.23C224.828 155.067 220.324 156.649 215.74 157.97C213.465 158.575 211.238 159.35 209.08 160.29C206.957 161.248 204.978 162.497 203.2 164C199.646 167.153 196.845 171.062 195 175.44V175.44ZM255 134C256.25 131.18 257.5 128.41 258.56 125.57C259.1 124.15 259.56 122.71 260.07 121.27L261.42 116.88C261.358 118.424 261.161 119.96 260.83 121.47C260.485 122.982 260.038 124.469 259.49 125.92C258.411 128.825 256.897 131.55 255 134V134ZM249.43 164.92C251.94 163.17 254.43 161.46 256.78 159.59C257.97 158.67 259.13 157.71 260.28 156.73L263.69 153.73C262.841 155.009 261.88 156.21 260.82 157.32C259.75 158.422 258.608 159.451 257.4 160.4C254.989 162.304 252.301 163.828 249.43 164.92V164.92ZM234.42 187.6C237.13 186.81 239.81 186.11 242.42 185.25C243.75 184.83 245.05 184.38 246.42 183.92L250.37 182.48C248.047 184.11 245.482 185.365 242.77 186.2C240.073 187.086 237.258 187.558 234.42 187.6V187.6ZM115.31 213.85C110.755 212.572 105.971 212.329 101.31 213.14C99.011 213.569 96.7829 214.316 94.69 215.36C92.6015 216.463 90.5962 217.716 88.69 219.11C84.7969 221.866 80.7467 224.394 76.56 226.68C74.46 227.8 72.33 228.87 70.16 229.87C67.99 230.87 65.8 231.78 63.57 232.6C65.71 231.6 67.85 230.54 69.95 229.43C72.05 228.32 74.14 227.21 76.19 226.01C80.3 223.64 84.26 221.06 88.12 218.29C90.0745 216.893 92.1301 215.642 94.27 214.55C96.4414 213.477 98.7654 212.745 101.16 212.38C103.54 212.02 105.957 211.97 108.35 212.23C110.724 212.506 113.058 213.05 115.31 213.85V213.85ZM28.11 229.11L32.39 230.8C33.81 231.32 35.24 231.8 36.69 232.3C39.57 233.25 42.51 234 45.5 234.79C42.3993 234.744 39.3239 234.225 36.38 233.25C34.9096 232.766 33.4731 232.185 32.08 231.51C30.6895 230.827 29.3612 230.024 28.11 229.11V229.11ZM55.43 253.91L59.92 253.14C61.4 252.84 62.87 252.55 64.34 252.19C67.27 251.51 70.15 250.64 73.09 249.77C70.445 251.339 67.57 252.483 64.57 253.16C61.5839 253.902 58.4972 254.156 55.43 253.91V253.91ZM86.23 261.47L89.82 259.28C91 258.54 92.17 257.81 93.32 257.03C95.64 255.5 97.87 253.86 100.18 252.22C98.3807 254.411 96.256 256.313 93.88 257.86C91.5336 259.454 88.9525 260.673 86.23 261.47Z" fill="#008EF8"/>
<path d="M206.19 248.14C208.33 244.44 211.76 237.21 210.86 228.35C209.98 219.7 205.42 213.81 199.5 206.35C191.35 196.1 188.2 196.52 178.07 185.19C169.88 176.03 165.38 171 163.89 163.19C161.89 152.62 164.54 145.63 167.3 141.13L110.49 151.64C107.73 156.14 103.05 165.38 105.06 175.95C106.55 183.77 111.06 188.8 119.24 197.95C129.37 209.28 132.51 208.86 140.66 219.11C146.59 226.56 151.15 232.45 152.02 241.11C152.92 249.97 149.49 257.21 147.36 260.9L206.19 248.14Z" fill="#FFCD52"/>
<path d="M138.732 152.409C172.661 145.734 199.54 137.147 198.769 133.229C197.998 129.311 169.869 131.546 135.941 138.221C102.013 144.896 75.1336 153.483 75.9044 157.401C76.6752 161.319 104.804 159.084 138.732 152.409Z" stroke="#008EF8" stroke-linecap="round" stroke-linejoin="round"/>
<path d="M313.86 267C315.25 251.4 327.55 241.38 328.24 240.83C336.29 234.47 338.83 237.62 353.24 229.54C359.72 225.91 365.81 222.43 371.87 215.66C377.6 209.26 382.2 204.12 383.76 196.23C384.53 192.38 384.39 188.78 387.33 186.16C389.57 184.16 393.33 183.02 396.03 184.34C400.11 186.34 400.94 193.26 399.84 197.89C398.84 202 396.56 203.41 397.35 206.16C398.05 208.63 400.28 208.79 402.48 211.35C406.09 215.55 405.61 221.51 405.48 223.2C404.86 230.89 399.76 232.49 399.87 240.27C399.87 243.6 400.87 243.45 400.69 246.56C400.41 252.22 397.14 256.38 394.17 260.04C389.17 266.21 387.12 265.59 383.61 271.12C380.75 275.62 381.72 276.66 379.23 279.48C374.59 284.75 367.4 285.48 365.51 285.62C358.14 286.33 352.27 283.5 346.73 280.83C337.89 276.56 337.73 273.83 333.06 273.59C324.89 273.22 320.63 281.52 316.65 279.65C312.89 277.82 313.69 268.86 313.86 267V267ZM267.67 289.27C254.62 280.6 239.12 283.95 238.25 284.15C228.25 286.45 229.13 290.4 213.8 296.63C206.92 299.42 200.39 302.01 191.32 302.51C182.74 302.98 175.86 303.36 168.72 299.65C165.24 297.84 162.51 295.48 158.64 296.14C155.64 296.65 152.45 298.84 151.78 301.8C150.78 306.22 155.67 311.21 159.97 313.24C163.79 315.04 166.33 314.13 167.97 316.46C169.45 318.55 168.19 320.39 168.81 323.71C169.81 329.15 174.81 332.5 176.19 333.45C182.58 337.78 187.02 334.8 193.03 339.74C195.59 341.85 194.89 342.49 197.42 344.31C202.02 347.64 207.3 347.68 212.02 347.65C219.95 347.65 220.76 345.65 227.27 346.32C232.57 346.9 232.78 348.32 236.53 348.13C243.53 347.8 248.53 342.62 249.9 341.25C255.06 335.94 256.52 329.58 257.9 323.59C260.09 314.03 258.05 312.16 260.79 308.4C265.6 301.79 274.79 303.64 275.79 299.4C276.77 295.3 269.27 290.32 267.67 289.27V289.27Z" fill="#C1E3F7"/>
<path d="M331.26 260.26C332.041 258.001 333.074 255.837 334.34 253.81C335.633 251.777 337.186 249.921 338.96 248.29C340.741 246.654 342.765 245.304 344.96 244.29C347.151 243.308 349.41 242.486 351.72 241.83C356.289 240.561 360.792 239.062 365.21 237.34C367.42 236.49 369.61 235.57 371.78 234.6C373.95 233.63 376.1 232.6 378.24 231.6C376.24 232.83 374.1 233.95 371.99 235.05C369.88 236.15 367.69 237.11 365.5 238.05C361.094 239.877 356.586 241.449 352 242.76C349.725 243.365 347.498 244.14 345.34 245.08C343.216 246.064 341.237 247.336 339.46 248.86C335.914 252.004 333.113 255.898 331.26 260.26V260.26ZM391.23 218.83C392.48 216.01 393.73 213.24 394.79 210.4C395.33 208.98 395.79 207.54 396.31 206.1L397.65 201.71C397.593 203.255 397.396 204.791 397.06 206.3C396.715 207.812 396.268 209.299 395.72 210.75C394.65 213.659 393.135 216.385 391.23 218.83ZM385.69 249.74C388.2 247.99 390.69 246.28 393.05 244.41C394.24 243.49 395.39 242.53 396.54 241.55L399.96 238.55C399.11 239.831 398.146 241.033 397.08 242.14C396.012 243.244 394.87 244.274 393.66 245.22C391.249 247.124 388.561 248.648 385.69 249.74V249.74ZM370.68 272.42C373.4 271.63 376.07 270.93 378.68 270.07C380.01 269.65 381.32 269.2 382.68 268.74L386.63 267.3C384.297 268.927 381.722 270.175 379 271C376.314 271.888 373.509 272.367 370.68 272.42ZM251.57 298.67C247.015 297.392 242.231 297.149 237.57 297.96C235.271 298.389 233.043 299.136 230.95 300.18C228.861 301.281 226.855 302.534 224.95 303.93C221.059 306.684 217.012 309.212 212.83 311.5C210.72 312.62 208.59 313.69 206.43 314.69C204.27 315.69 202.06 316.6 199.83 317.42C201.97 316.42 204.12 315.36 206.21 314.25C208.3 313.14 210.4 312.03 212.45 310.83C216.56 308.46 220.52 305.88 224.38 303.11C226.334 301.713 228.39 300.462 230.53 299.37C232.7 298.292 235.024 297.56 237.42 297.2C239.8 296.84 242.217 296.79 244.61 297.05C246.984 297.326 249.318 297.87 251.57 298.67ZM164.38 313.93L168.65 315.62C170.08 316.14 171.5 316.62 172.95 317.12C175.84 318.07 178.77 318.82 181.76 319.61C178.659 319.563 175.584 319.044 172.64 318.07C171.17 317.586 169.733 317.005 168.34 316.33C166.951 315.649 165.626 314.846 164.38 313.93V313.93ZM191.69 338.73L196.18 337.96C197.66 337.66 199.18 337.37 200.6 337.01C203.54 336.33 206.41 335.46 209.35 334.59C206.705 336.159 203.83 337.303 200.83 337.98C197.844 338.723 194.757 338.976 191.69 338.73V338.73ZM222.49 346.29L226.08 344.1C227.26 343.36 228.44 342.63 229.59 341.85C231.91 340.32 234.13 338.68 236.44 337.04C234.643 339.233 232.518 341.136 230.14 342.68C227.794 344.274 225.212 345.493 222.49 346.29Z" fill="#008EF8"/>
<path d="M342.46 333C344.59 329.3 348.02 322.07 347.12 313.21C346.24 304.56 341.69 298.67 335.76 291.21C327.61 280.96 324.47 281.38 314.33 270.05C306.14 260.89 301.65 255.86 300.16 248.05C298.16 237.48 300.8 230.49 303.56 225.99L246.76 236.5C244 241 239.31 250.24 241.32 260.81C242.81 268.63 247.32 273.66 255.5 282.81C265.63 294.14 268.77 293.72 276.93 303.97C282.85 311.42 287.41 317.31 288.28 325.97C289.18 334.83 285.75 342.07 283.62 345.76L342.46 333Z" fill="#FFCD52"/>
<path d="M274.993 237.241C308.921 230.566 335.801 221.979 335.03 218.061C334.259 214.143 306.13 216.378 272.202 223.053C238.274 229.728 211.394 238.315 212.165 242.233C212.936 246.151 241.065 243.916 274.993 237.241Z" stroke="#008EF8" stroke-linecap="round" stroke-linejoin="round"/>
<path d="M74.47 8.93L62.4 53.63C61.8329 52.1461 61.3652 50.6261 61 49.08L71 12.14C72.0815 10.9915 73.2409 9.91891 74.47 8.93V8.93ZM66 18.61L59.9 41.05C59.6231 33.1259 61.7496 25.3034 66 18.61V18.61ZM81 4.63L65.88 60.63C65.25 59.63 64.65 58.52 64.13 57.44L77.9 6.44C78.8928 5.76967 79.9283 5.16505 81 4.63V4.63ZM87.17 2L69.88 66C69.1629 65.2469 68.4949 64.4486 67.88 63.61L84.27 3.05C85.2139 2.64 86.1824 2.28932 87.17 2V2ZM93.07 0.52L74.24 70.26C73.5079 69.6668 72.8101 69.0324 72.15 68.36L90.31 1.08C90.4382 1.04514 90.5685 1.01842 90.7 1C91.48 0.8 92.28 0.65 93.07 0.52V0.52ZM98.58 0L78.75 73.48C77.98 73.01 77.25 72.48 76.54 72L95.93 0.15C96.8098 0.050474 97.6946 0.000395248 98.58 0V0ZM103.85 0.2L83.4 75.94C82.61 75.59 81.85 75.23 81.1 74.82L101.29 0C102.147 0.0111206 103.002 0.0779282 103.85 0.2V0.2ZM109.11 1.12L88.41 77.79C87.591 77.5771 86.7861 77.3132 86 77L106.64 0.58C107.46 0.73 108.3 0.9 109.11 1.12ZM114.19 2.75L93.62 79C92.79 78.88 91.97 78.73 91.14 78.54L111.82 1.9C112.625 2.13973 113.416 2.42349 114.19 2.75V2.75ZM119.14 5.11L99.08 79.41C98.22 79.41 97.35 79.41 96.51 79.29L116.86 3.89C117.62 4.28 118.4 4.67 119.14 5.11V5.11ZM123.81 8.19L104.68 79.07C103.793 79.2144 102.898 79.3045 102 79.34L121.62 6.64C122.381 7.11206 123.112 7.62967 123.81 8.19V8.19ZM128.27 12.19L110.54 77.86C109.85 78.07 109.18 78.25 108.54 78.41L107.77 78.57L126.23 10.17C126.944 10.8081 127.625 11.4823 128.27 12.19V12.19ZM132.3 17.14L116.51 75.64C115.556 76.1128 114.574 76.5269 113.57 76.88L130.39 14.56C131.088 15.3731 131.726 16.2353 132.3 17.14V17.14ZM135.9 23.53L122.84 71.92C121.832 72.6554 120.776 73.3236 119.68 73.92L134.21 20.09C134.834 21.2057 135.398 22.354 135.9 23.53V23.53ZM138.79 33.11L130.17 65C129.064 66.39 127.843 67.6845 126.52 68.87L137.52 27.92C137.8 28.83 138.06 29.79 138.28 30.73C138.51 31.54 138.66 32.34 138.79 33.11V33.11ZM135.06 57.56L139.27 42C138.957 47.4219 137.524 52.72 135.06 57.56V57.56Z" fill="#FFEDC5"/>
</svg>
