<svg width="24" height="24" viewBox="0 0 24 24" fill="none" xmlns="http://www.w3.org/2000/svg">
<path fill-rule="evenodd" clip-rule="evenodd" d="M1 12C1 5.925 5.925 1 12 1C18.075 1 23 5.925 23 12C23 18.075 18.075 23 12 23C5.925 23 1 18.075 1 12ZM14.8 9.4C14.6409 9.18783 14.404 9.04756 14.1414 9.01005C13.8789 8.97254 13.6122 9.04087 13.4 9.2C13.1878 9.35913 13.0476 9.59603 13.0101 9.85858C12.9725 10.1211 13.0409 10.3878 13.2 10.6L14.25 12L13.2 13.4C13.0409 13.6122 12.9725 13.8789 13.0101 14.1414C13.0476 14.404 13.1878 14.6409 13.4 14.8C13.6122 14.9591 13.8789 15.0275 14.1414 14.9899C14.404 14.9524 14.6409 14.8122 14.8 14.6L15.5 13.667L16.2 14.6C16.3591 14.8122 16.596 14.9524 16.8586 14.9899C16.9886 15.0085 17.121 15.0013 17.2482 14.9687C17.3754 14.9361 17.4949 14.8788 17.6 14.8C17.7051 14.7212 17.7936 14.6225 17.8605 14.5095C17.9274 14.3965 17.9714 14.2714 17.99 14.1414C18.0085 14.0114 18.0013 13.879 17.9687 13.7518C17.9361 13.6246 17.8788 13.5051 17.8 13.4L16.75 12L17.8 10.6C17.9591 10.3878 18.0275 10.1211 17.99 9.85858C17.9524 9.59603 17.8122 9.35913 17.6 9.2C17.4949 9.12121 17.3754 9.06388 17.2482 9.03129C17.121 8.99869 16.9886 8.99148 16.8586 9.01005C16.596 9.04756 16.3591 9.18783 16.2 9.4L15.5 10.333L14.8 9.4ZM8 10C8 9.73478 7.89464 9.48043 7.70711 9.29289C7.51957 9.10536 7.26522 9 7 9C6.73478 9 6.48043 9.10536 6.29289 9.29289C6.10536 9.48043 6 9.73478 6 10V12C6 12.493 6.14 13.211 6.588 13.834C7.074 14.51 7.874 15 9 15C10.126 15 10.926 14.508 11.412 13.834C11.86 13.211 12 12.494 12 12V10C12 9.73478 11.8946 9.48043 11.7071 9.29289C11.5196 9.10536 11.2652 9 11 9C10.7348 9 10.4804 9.10536 10.2929 9.29289C10.1054 9.48043 10 9.73478 10 10V12C10 12.173 9.94 12.456 9.788 12.666C9.674 12.825 9.474 13 9 13C8.526 13 8.326 12.825 8.212 12.666C8.07888 12.4689 8.00529 12.2377 8 12V10Z" fill="#4B6ABB"/>
</svg>
